# xmcd
#
# Track frame offsets: 
#        150
#        27185
#        41826
#        60188
#        77338
#        97861
#        128175
#        147441
#        172861
#        187905
#        208964
#        224036
#        243856
#
# Disc length: 3511 seconds
#
# Revision: 0
# Processed by: cddbd v1.5.2PL0 Copyright (c) Steve Scherf et al.
# Submitted via: ExactAudioCopy v0.99pb5
#
DISCID=ac0db50d
DTITLE=Trijntje Oosterhuis - Best Of Burt Bacharach Live
DYEAR=1900
DGENRE=
TTITLE0=The Look Of Love
TTITLE1=I'll Never Fall In Love Again
TTITLE2=A House Is Not A Home
TTITLE3=Stronger Than Before
TTITLE4=(They Long To Be) Close To You
TTITLE5=Anyone Who Had A Heart
TTITLE6=Who'll Speak For Love
TTITLE7=Waiting For Charlie (To Come Home)
TTITLE8=Do You Know The Way To San Jose?
TTITLE9=Alfie
TTITLE10=What The World Needs Now
TTITLE11=That's What Friends Are For
TTITLE12=I Say A Little Prayer
EXTD=
EXTT0=
EXTT1=
EXTT2=
EXTT3=
EXTT4=
EXTT5=
EXTT6=
EXTT7=
EXTT8=
EXTT9=
EXTT10=
EXTT11=
EXTT12=
PLAYORDER=
